<svg width="16" height="19" viewBox="0 0 16 19" fill="none" xmlns="http://www.w3.org/2000/svg">
<path d="M10.3088 6.0705V0.529297H1.0735C0.519377 0.529297 0.149963 0.89871 0.149963 1.45283V18.0764C0.149963 18.6305 0.519377 19 1.0735 19H14.9265C15.3883 19 15.85 18.6305 15.85 18.0764V6.0705H10.3088ZM1.99703 2.83813C1.99703 2.56107 2.18174 2.37636 2.4588 2.37636H7.99999C8.27705 2.37636 8.46176 2.56107 8.46176 2.83813V6.53226C8.46176 6.80932 8.27705 6.99403 7.99999 6.99403H2.4588C2.18174 6.99403 1.99703 6.80932 1.99703 6.53226V2.83813ZM10.3088 14.3823H2.92056C2.36644 14.3823 1.99703 14.0129 1.99703 13.4588C1.99703 12.9046 2.36644 12.5352 2.92056 12.5352H10.3088C10.8629 12.5352 11.2324 12.9046 11.2324 13.4588C11.2324 14.0129 10.7706 14.3823 10.3088 14.3823ZM13.0794 10.6882H2.92056C2.36644 10.6882 1.99703 10.3187 1.99703 9.76463C1.99703 9.21051 2.36644 8.84109 2.92056 8.84109H13.0794C13.6335 8.84109 14.003 9.21051 14.003 9.76463C14.003 10.3187 13.5412 10.6882 13.0794 10.6882Z" fill="white"/>
</svg>
