<svg width="16" height="18" viewBox="0 0 16 18" fill="none" xmlns="http://www.w3.org/2000/svg">
<path d="M11.9302 5.02326C11.5418 5.02278 11.1694 4.86827 10.8948 4.59361C10.6201 4.31895 10.4656 3.94657 10.4651 3.55814V0H1.46512C1.07669 0.000471911 0.704304 0.154983 0.429644 0.429644C0.154983 0.704304 0.000471911 1.07669 0 1.46512V16.5349C0.000471911 16.9233 0.154983 17.2957 0.429644 17.5704C0.704304 17.845 1.07669 17.9995 1.46512 18H14.0233C14.4117 17.9995 14.7841 17.845 15.0587 17.5704C15.3334 17.2957 15.4879 16.9233 15.4884 16.5349V5.02326H11.9302ZM11.9302 11.3023C11.7637 11.3023 11.604 11.2361 11.4863 11.1184C11.3685 11.0006 11.3024 10.8409 11.3023 10.6744C11.3023 9.97069 11.0936 9.28275 10.7027 8.69762C10.3117 8.11249 9.75599 7.65643 9.10583 7.38713C8.45566 7.11782 7.74024 7.04736 7.05003 7.18465C6.35982 7.32194 5.72582 7.66082 5.2282 8.15843C4.73059 8.65605 4.39171 9.29005 4.25442 9.98026C4.11712 10.6705 4.18759 11.3859 4.45689 12.0361C4.7262 12.6862 5.18226 13.2419 5.76739 13.6329C6.35252 14.0239 7.04045 14.2326 7.74419 14.2326C8.51412 14.2351 9.26366 13.9852 9.87809 13.5213C10.0112 13.4211 10.1787 13.3779 10.3437 13.4012C10.5087 13.4245 10.6576 13.5124 10.7578 13.6455C10.858 13.7787 10.9012 13.9462 10.8779 14.1111C10.8546 14.2761 10.7667 14.4251 10.6335 14.5253C9.80157 15.1535 8.78668 15.4918 7.74419 15.4884C6.79208 15.4884 5.86135 15.206 5.0697 14.6771C4.27805 14.1481 3.66103 13.3963 3.29667 12.5166C2.93232 11.637 2.83698 10.6691 3.02273 9.73526C3.20848 8.80145 3.66696 7.94368 4.34021 7.27044C5.01345 6.5972 5.87121 6.13871 6.80503 5.95296C7.73885 5.76722 8.70677 5.86255 9.58641 6.22691C10.466 6.59126 11.2179 7.20828 11.7468 7.99993C12.2758 8.79158 12.5581 9.72231 12.5581 10.6744C12.5581 10.8409 12.4919 11.0006 12.3742 11.1184C12.2564 11.2361 12.0968 11.3023 11.9302 11.3023ZM10.2615 9.58376L7.5447 12.3014C7.48641 12.3597 7.4172 12.406 7.34102 12.4376C7.26485 12.4691 7.1832 12.4854 7.10074 12.4854C7.01829 12.4854 6.93664 12.4691 6.86047 12.4376C6.78429 12.406 6.71508 12.3597 6.65679 12.3014L5.62582 11.2704C5.50879 11.1525 5.44324 10.9931 5.44354 10.827C5.44385 10.6608 5.50997 10.5016 5.62743 10.3842C5.7449 10.2667 5.90412 10.2006 6.07024 10.2003C6.23636 10.2 6.39582 10.2655 6.51371 10.3825L7.10075 10.9696L9.37364 8.69586C9.43194 8.63756 9.50115 8.59131 9.57732 8.55976C9.6535 8.52821 9.73514 8.51197 9.81759 8.51197C9.90004 8.51197 9.98168 8.52821 10.0579 8.55976C10.134 8.59131 10.2032 8.63756 10.2615 8.69586C10.3198 8.75416 10.3661 8.82337 10.3976 8.89954C10.4292 8.97572 10.4454 9.05736 10.4454 9.13981C10.4454 9.22226 10.4292 9.3039 10.3976 9.38007C10.3661 9.45625 10.3198 9.52546 10.2615 9.58376Z" fill="white"/>
<path d="M11.7209 3.55858C11.7216 3.61389 11.7439 3.66675 11.783 3.70586C11.8221 3.74497 11.8749 3.76723 11.9302 3.76788H15.3776C15.3041 3.58848 15.1959 3.42538 15.0592 3.28796L12.2009 0.429677C12.0635 0.292877 11.9004 0.184674 11.7209 0.111328V3.55858Z" fill="white"/>
</svg>
