<svg width="16" height="16" viewBox="0 0 16 16" fill="none" xmlns="http://www.w3.org/2000/svg">
<path d="M10.785 10.1212L11.6309 9.27536L11.2247 8.82227L10.308 9.64417L10.785 10.1212Z" fill="white"/>
<path d="M3.42659 0.124844L0 0L0.124844 3.42662L4.71477 7.5418L7.39558 4.55171L3.42659 0.124844Z" fill="white"/>
<path d="M9.27558 11.6306L10.1215 10.7847L9.60824 10.2715L8.68396 11.1002L9.27558 11.6306Z" fill="white"/>
<path d="M13.966 12.4619L12.4714 13.9565L14.1965 15.6815C14.4025 15.8875 14.6731 15.9905 14.9437 15.9905C15.2144 15.9905 15.485 15.8875 15.691 15.6815C16.1031 15.2694 16.1031 14.599 15.691 14.1869L13.966 12.4619Z" fill="white"/>
<path d="M14.6902 9.71399C14.0794 9.10315 13.0854 9.10315 12.4745 9.71399L9.71351 12.475C9.41761 12.771 9.25464 13.1644 9.25464 13.5829C9.25464 14.0014 9.41761 14.3948 9.71351 14.6907L10.0848 15.0619L15.0614 10.0853L14.6902 9.71399Z" fill="white"/>
<path d="M4.36914 9.2854L5.21498 10.1312L6.11032 9.2359L6.77385 9.89946L5.87854 10.7948L6.72442 11.6407L15.8752 3.43638L16 0.00976562L12.5734 0.134609L4.36914 9.2854Z" fill="white"/>
<path d="M0.309046 14.1957C-0.103015 14.6078 -0.103015 15.2782 0.309046 15.6903C0.515077 15.8963 0.785702 15.9993 1.05633 15.9993C1.32695 15.9993 1.59757 15.8963 1.80361 15.6903L3.52863 13.9653L2.03407 12.4707L0.309046 14.1957Z" fill="white"/>
<path d="M3.52538 9.72277C2.9145 9.11196 1.92057 9.11193 1.30973 9.72277L0.938477 10.094L5.91515 15.0707L6.2864 14.6994C6.58231 14.4035 6.74528 14.0101 6.74528 13.5916C6.74528 13.1731 6.58231 12.7797 6.2864 12.4838L3.52538 9.72277Z" fill="white"/>
</svg>
