<svg width="18" height="15" viewBox="0 0 18 15" fill="none" xmlns="http://www.w3.org/2000/svg">
<path d="M17.7901 7.19613C17.5161 6.74393 17.0318 6.47363 16.4948 6.47363H4.5367C3.94394 6.47363 3.40483 6.81559 3.16285 7.34507L0 14.1317C0.119405 14.6287 0.572951 14.9999 1.11316 14.9999H13.8357C14.3796 14.9999 14.8768 14.6852 15.1197 14.1871L17.8535 8.57945C18.0693 8.1357 18.0454 7.61861 17.7901 7.19613Z" fill="white"/>
<path d="M2.54534 6.065C2.78662 5.56717 3.32493 5.24543 3.91681 5.24543H15.1579V3.85919C15.1579 3.28774 14.6579 2.82275 14.0434 2.82275H7.48879C7.47918 2.82275 7.47259 2.82037 7.47012 2.81864L6.29694 1.23711C6.08917 0.95655 5.74599 0.789062 5.37933 0.789062H1.11481C0.500004 0.789062 0 1.25406 0 1.8255V11.2101L2.54534 6.065Z" fill="white"/>
</svg>
