<svg width="16" height="17" viewBox="0 0 16 17" fill="none" xmlns="http://www.w3.org/2000/svg">
<path d="M13.1401 0.279297V2.85998H15.7208L13.1401 0.279297Z" fill="white"/>
<path d="M12.1868 3.81321V0H5.03706V4.71846C7.49115 4.64118 9.46626 6.60721 9.46626 9.00584C9.46626 11.4235 7.47037 13.3715 5.03706 13.2932V16.2061H16V3.81321H12.1868ZM8.37359 4.28986V3.33656H11.2335V4.28986H8.37359ZM14.0934 13.8229H8.44308V12.8696H14.0934L14.0934 13.8229ZM14.0934 11.9163H9.80354V10.963H14.0934V11.9163ZM14.0934 10.0097H10.2802V9.05637H14.0934V10.0097ZM14.0934 8.10306H10.2802V7.14976H14.0934V8.10306ZM14.0934 6.19646H9.80354V5.24316H14.0934V6.19646Z" fill="white"/>
<path d="M1.54448 11.2891L0.279198 12.5544C-0.0930661 12.9267 -0.0930661 13.5303 0.279198 13.9026C0.651494 14.2749 1.25509 14.2749 1.62739 13.9026L2.89188 12.6381C2.35444 12.2986 1.88866 11.8363 1.54448 11.2891Z" fill="white"/>
<path d="M5.17637 12.3421C7.0191 12.3421 8.51293 10.8482 8.51293 9.0055C8.51293 7.16277 7.0191 5.66895 5.17637 5.66895C3.33364 5.66895 1.83981 7.16277 1.83981 9.0055C1.83981 10.8482 3.33364 12.3421 5.17637 12.3421Z" fill="white"/>
</svg>
