<svg width="20" height="13" viewBox="0 0 20 13" fill="none" xmlns="http://www.w3.org/2000/svg">
<path d="M16.4148 0.922852H4.32568C1.95948 0.922852 0.767456 1.8124 0.767456 3.53816V8.62645C0.771918 9.89319 1.44951 11.0621 2.54659 11.6954C4.61928 13.1848 7.45037 13.0254 9.34283 11.3129C9.46739 11.2151 9.53852 11.1083 9.5919 11.0816C10.1107 10.6619 10.8522 10.6619 11.371 11.0816C12.3777 12.1141 13.7631 12.6895 15.205 12.674C16.3015 12.6706 17.3713 12.3357 18.274 11.7132C19.356 11.0632 20.0127 9.88865 19.9998 8.62645V3.53816C19.9997 1.79463 18.8166 0.922852 16.4148 0.922852ZM8.60449 8.94669V8.92888C7.97868 9.40641 7.21223 9.66294 6.42505 9.65831C4.44001 9.66385 2.81321 8.08441 2.76008 6.10009C2.76813 5.97724 2.81842 5.86095 2.9024 5.77096C3.5365 5.31591 4.2927 5.06176 5.07291 5.04154C7.05228 5.04996 8.67099 6.62152 8.73788 8.59976C8.75468 8.73048 8.70452 8.86087 8.60449 8.94669ZM14.3421 9.67611V9.65831C13.5574 9.66502 12.7931 9.40816 12.1716 8.92888C12.0497 8.86684 11.9788 8.73578 11.9937 8.59976C12.0741 6.62748 13.6849 5.06356 15.6587 5.04154C16.4405 5.05271 17.1993 5.3077 17.8292 5.77096C17.936 5.84748 18.0016 5.96886 18.0071 6.10009C17.9496 8.08533 16.3282 9.66736 14.3421 9.67611Z" fill="white"/>
</svg>
