<svg width="15" height="17" viewBox="0 0 15 17" fill="none" xmlns="http://www.w3.org/2000/svg">
<path d="M13.6667 2.79098H12.643V0.702608C12.6324 0.367901 12.3635 0.0990159 12.0288 0.0883789H2.32399C1.23845 0.0883789 0.358459 0.968373 0.358459 2.05391V15.0346C0.358459 16.1201 1.23845 17.0001 2.32399 17.0001H13.6667C14.006 17.0001 14.281 16.7251 14.281 16.3859V3.40521C14.281 3.06599 14.006 2.79098 13.6667 2.79098ZM7.48351 9.32228L6.00936 8.1143C5.80786 7.99285 5.55569 7.99285 5.35419 8.1143L3.88004 9.32228V4.01944H7.48351V9.32228ZM11.4146 2.79098H2.32399C1.9169 2.79098 1.58692 2.461 1.58692 2.05391C1.58692 1.64682 1.9169 1.31684 2.32399 1.31684H11.4146V2.79098Z" fill="white"/>
</svg>
