<svg width="18" height="17" viewBox="0 0 18 17" fill="none" xmlns="http://www.w3.org/2000/svg">
<path d="M7.98051 9.07764C7.6668 9.0779 7.36021 9.17116 7.09949 9.34562C6.83877 9.52009 6.63562 9.76793 6.51572 10.0578C6.39582 10.3477 6.36455 10.6666 6.42586 10.9743C6.48718 11.282 6.63832 11.5645 6.8602 11.7863C7.08207 12.0081 7.36471 12.1591 7.67239 12.2203C7.98008 12.2815 8.299 12.2501 8.58884 12.1301C8.87868 12.0101 9.12644 11.8068 9.3008 11.546C9.47515 11.2852 9.56828 10.9786 9.56841 10.6649C9.56797 10.2439 9.40051 9.84037 9.1028 9.54278C8.80509 9.24519 8.40145 9.0779 7.98051 9.07764Z" fill="white"/>
<path d="M17.0835 8.04587C17.0203 7.01454 16.0505 6.10864 14.9756 6.04377C12.8624 5.92822 10.7483 5.87166 8.63328 5.8741C6.51829 5.87654 4.40474 5.9331 2.29264 6.04377C1.21773 6.10864 0.24962 7.01488 0.184747 8.04587C0.0456843 10.4681 0.118875 12.2284 0.408976 14.647C0.540054 15.6753 1.5258 16.6202 2.5528 16.7213C4.57619 16.9069 6.60301 16.9997 8.63328 16.9997C10.6635 16.9997 12.6904 16.9069 14.7138 16.7213C15.7408 16.6215 16.7265 15.6753 16.8576 14.647C17.1477 12.2284 17.2209 10.4681 17.0835 8.04587ZM12.0267 14.5133L12.0217 14.5189L11.7968 14.7431C11.6447 14.8812 11.4469 14.9579 11.2415 14.9584C11.1058 14.9595 10.9725 14.9226 10.8566 14.8519L10.8363 14.837C10.472 14.5229 10.2042 14.1383 9.94705 13.7637C9.8183 13.5771 9.68556 13.3855 9.54251 13.2065C8.92608 13.5888 8.19056 13.731 7.47604 13.6061C6.76152 13.4811 6.11791 13.0977 5.66781 12.5289C5.21771 11.9601 4.99256 11.2456 5.03524 10.5215C5.07792 9.79737 5.38546 9.11426 5.89927 8.60225C6.41308 8.09024 7.09727 7.78511 7.82152 7.74497C8.54578 7.70484 9.25949 7.9325 9.82673 8.38459C10.394 8.83669 10.7751 9.48164 10.8975 10.1966C11.02 10.9116 10.8752 11.6466 10.4907 12.2616C10.67 12.4044 10.8619 12.5368 11.0482 12.6655C11.4218 12.9234 11.8078 13.1898 12.1221 13.5538L12.1371 13.5744C12.3131 13.8562 12.2672 14.2514 12.0267 14.5133Z" fill="white"/>
<path d="M2.23674 5.11397H2.24206C4.34163 4.9992 6.49277 4.94264 8.63327 4.94264C10.7738 4.94264 12.9249 5.00086 15.0245 5.11564H15.0298C15.8213 5.16321 16.5565 5.52218 17.0998 6.06013C17.0944 5.94303 17.0886 5.82925 17.0821 5.7188C17.0189 4.68747 16.0508 3.78157 14.9739 3.7167C12.756 3.5956 10.5371 3.53838 8.31722 3.54503C8.20677 3.54529 8.09757 3.52164 7.99713 3.4757C7.89669 3.42976 7.80738 3.36261 7.73535 3.27888C7.16979 2.6195 6.62119 1.96644 6.09655 1.32602C5.99272 1.19735 5.85976 1.09524 5.70866 1.02813C5.55756 0.961028 5.39265 0.930855 5.22757 0.94011C4.33465 0.985799 3.4425 1.04956 2.55112 1.1314C1.52412 1.23121 0.538379 2.1767 0.407634 3.20536C0.307829 4.05703 0.230979 5.02348 0.182739 6.04483C0.724018 5.51353 1.45293 5.16122 2.23674 5.11397Z" fill="white"/>
</svg>
