<svg width="19" height="16" viewBox="0 0 19 16" fill="none" xmlns="http://www.w3.org/2000/svg">
<path d="M10.9396 11.7414C10.4895 11.9523 9.99837 12.0612 9.50131 12.0602C9.00215 12.0605 8.50897 11.9517 8.05627 11.7414L3.39548 9.58398V12.5351C3.39545 12.9329 3.51166 13.3221 3.72981 13.6548C3.94797 13.9874 4.25857 14.2491 4.62343 14.4076C6.16199 15.0882 7.81944 15.4593 9.50131 15.4999C11.1832 15.4593 12.8406 15.0882 14.3792 14.4076C14.7441 14.2491 15.0547 13.9874 15.2728 13.6548C15.491 13.3221 15.6072 12.9329 15.6072 12.5351V9.58398L10.9396 11.7414Z" fill="white"/>
<path d="M17.6424 8.6416V11.4299C17.6424 11.6099 17.5709 11.7824 17.4437 11.9097C17.3165 12.0369 17.1439 12.1084 16.964 12.1084C16.7841 12.1084 16.6115 12.0369 16.4843 11.9097C16.357 11.7824 16.2856 11.6099 16.2856 11.4299V9.26575L17.6424 8.6416Z" fill="white"/>
<path d="M9.50131 10.7046C9.2001 10.7045 8.90255 10.6385 8.62953 10.5113L0.802529 6.88916C0.563915 6.7788 0.361871 6.60246 0.220268 6.38096C0.0786645 6.15946 0.00341797 5.90205 0.00341797 5.63916C0.00341797 5.37626 0.0786645 5.11886 0.220268 4.89735C0.361871 4.67585 0.563915 4.49951 0.802529 4.38916L8.62953 0.767037C8.90261 0.640026 9.20014 0.574219 9.50131 0.574219C9.80248 0.574219 10.1 0.640026 10.3731 0.767037L18.2001 4.38916C18.4389 4.49943 18.6411 4.67578 18.7829 4.89735C18.9246 5.11893 18.9999 5.37646 18.9999 5.6395C18.9999 5.90253 18.9246 6.16006 18.7829 6.38164C18.6411 6.60321 18.4389 6.77956 18.2001 6.88983L10.3731 10.5113C10.1001 10.6385 9.80253 10.7045 9.50131 10.7046Z" fill="white"/>
</svg>
