<svg width="19" height="16" viewBox="0 0 19 16" fill="none" xmlns="http://www.w3.org/2000/svg">
<path fill-rule="evenodd" clip-rule="evenodd" d="M0.142822 3.42857C0.142822 1.53504 1.67786 0 3.57139 0H5.57979C6.48911 0 7.36118 0.361214 8.00414 1.00421L9.99575 2.99582C10.6388 3.63879 11.5108 4 12.4201 4H15C16.8935 4 18.4285 5.53504 18.4285 7.42857V12.5714C18.4285 14.465 16.8935 16 15 16H3.57139C1.67786 16 0.142822 14.465 0.142822 12.5714V3.42857ZM11 1.14286C11 0.511679 11.5116 0 12.1428 0H16.7143C17.661 0 18.4285 0.7675 18.4285 1.71429V2.28571H12.1428C11.5116 2.28571 11 1.77404 11 1.14286ZM11 8.57143C11 9.20593 10.6552 9.75996 10.1428 10.0564V11.4286C10.1428 11.902 9.75907 12.2857 9.28568 12.2857C8.81229 12.2857 8.42854 11.902 8.42854 11.4286V10.0564C7.91614 9.75996 7.57139 9.20593 7.57139 8.57143C7.57139 7.62464 8.33889 6.85714 9.28568 6.85714C10.2325 6.85714 11 7.62464 11 8.57143Z" fill="white"/>
</svg>
