<svg width="18" height="20" viewBox="0 0 18 20" fill="none" xmlns="http://www.w3.org/2000/svg">
<path d="M2.64 14.5664L0 17.1464L2.06 17.2064H2.12C2.44 17.2064 2.68 17.4664 2.68 17.8064V19.9064L5.88 16.7064C4.7 16.2464 3.58 15.5464 2.72 14.6664L2.64 14.5664Z" fill="white"/>
<path d="M16.46 8.46672C16.46 6.36672 15.62 4.48672 14.22 3.12672C12.88 1.72672 10.98 0.886719 8.88 0.886719C6.78 0.886719 4.9 1.72672 3.54 3.12672C2.16 4.48672 1.3 6.38672 1.3 8.46672C1.3 10.5467 2.14 12.4467 3.54 13.8467C4.48 14.7867 5.66 15.4667 6.98 15.8067V15.8467H7.1C7.66 15.9867 8.26 16.0667 8.88 16.0667C10.98 16.0667 12.86 15.2267 14.22 13.8667C15.62 12.4467 16.46 10.5467 16.46 8.46672ZM14.12 6.92672C14.1 7.04672 14.04 7.14672 13.94 7.22672L11.88 9.34672L12.34 12.2267C12.4 12.5267 12.16 12.8467 11.86 12.9067C11.72 12.9267 11.6 12.9067 11.5 12.8267L8.90001 11.4867L6.3 12.8467C5.98 12.9867 5.64 12.8667 5.5 12.5867C5.44 12.4667 5.42 12.3267 5.44 12.2267L5.9 9.34672L3.82 7.24672C3.6 7.02672 3.6 6.64672 3.82 6.42672C3.9 6.34672 4.02 6.28672 4.16 6.26672L7.04 5.80672L8.38 3.20672C8.52001 2.92672 8.86 2.80672 9.14 2.94672C9.26 3.00672 9.36 3.08672 9.4 3.20672L10.74 5.80672L13.66 6.26672C13.94 6.30672 14.18 6.62672 14.12 6.92672Z" fill="white"/>
<path d="M15.08 14.6468C14.2 15.4868 13.18 16.1668 12.06 16.6068L15.32 19.8868V17.7868C15.32 17.4468 15.58 17.1868 15.88 17.1868H15.94L18 17.1468L15.24 14.4668C15.2 14.5068 15.14 14.5668 15.08 14.6468Z" fill="white"/>
</svg>
