<svg width="18" height="18" viewBox="0 0 18 18" fill="none" xmlns="http://www.w3.org/2000/svg">
<mask id="mask0_564_487" style="mask-type:luminance" maskUnits="userSpaceOnUse" x="0" y="0" width="18" height="18">
<path d="M0 0H18V18H0V0Z" fill="white"/>
</mask>
<g mask="url(#mask0_564_487)">
<path fill-rule="evenodd" clip-rule="evenodd" d="M3.708 0C1.66013 0 0 1.66013 0 3.708V14.292C0 16.3399 1.66013 18 3.708 18H8.27687C6.99095 16.7506 6.192 15.0026 6.192 13.068C6.192 9.2705 9.2705 6.192 13.068 6.192C13.2253 6.192 13.3813 6.19729 13.536 6.20766V3.708C13.536 1.66013 11.8759 0 9.828 0H3.708ZM2.628 4.032C2.628 3.49518 3.06318 3.06 3.6 3.06H8.568C9.10483 3.06 9.54 3.49518 9.54 4.032C9.54 4.56883 9.10483 5.004 8.568 5.004H3.6C3.06318 5.004 2.628 4.56883 2.628 4.032ZM3.6 6.3C3.06318 6.3 2.628 6.73517 2.628 7.272C2.628 7.80883 3.06318 8.244 3.6 8.244H4.968C5.50483 8.244 5.94 7.80883 5.94 7.272C5.94 6.73517 5.50483 6.3 4.968 6.3H3.6Z" fill="white"/>
<path fill-rule="evenodd" clip-rule="evenodd" d="M13.068 17.9997C15.7919 17.9997 18 15.7916 18 13.0677C18 10.3439 15.7919 8.13574 13.068 8.13574C10.3441 8.13574 8.13602 10.3439 8.13602 13.0677C8.13602 15.7916 10.3441 17.9997 13.068 17.9997ZM14.091 10.8232C14.4705 10.4436 15.086 10.4436 15.4656 10.8232C15.8452 11.2028 15.8452 11.8182 15.4656 12.1978L12.2327 15.4307C11.8531 15.8103 11.2377 15.8103 10.858 15.4307C10.4785 15.0511 10.4785 14.4357 10.858 14.0561L14.091 10.8232ZM12.384 10.9437C12.384 11.58 11.8682 12.0957 11.232 12.0957C10.5958 12.0957 10.08 11.58 10.08 10.9437C10.08 10.3075 10.5958 9.79174 11.232 9.79174C11.8682 9.79174 12.384 10.3075 12.384 10.9437ZM15.228 16.4157C15.8642 16.4157 16.38 15.9 16.38 15.2637C16.38 14.6275 15.8642 14.1117 15.228 14.1117C14.5918 14.1117 14.076 14.6275 14.076 15.2637C14.076 15.9 14.5918 16.4157 15.228 16.4157Z" fill="white"/>
</g>
</svg>
