<svg width="15" height="18" viewBox="0 0 15 18" fill="none" xmlns="http://www.w3.org/2000/svg">
<path d="M12.6 0H1.8C0.81 0 0 0.81 0 1.8V16.2C0 17.19 0.81 18 1.8 18H12.6C13.59 18 14.4 17.19 14.4 16.2V1.8C14.4 0.81 13.59 0 12.6 0ZM3.87 5.67C4.23 5.31 4.77 5.31 5.13 5.67L6.3 6.84L10.17 2.97C10.53 2.61 11.07 2.61 11.43 2.97C11.79 3.33 11.79 3.87 11.43 4.23L6.93 8.73C6.39 9.18 5.85 8.91 5.67 8.73L3.87 6.93C3.51 6.57 3.51 6.03 3.87 5.67ZM11.7 16.2H2.7C2.16 16.2 1.8 15.84 1.8 15.3C1.8 14.76 2.16 14.4 2.7 14.4H11.7C12.24 14.4 12.6 14.76 12.6 15.3C12.6 15.84 12.24 16.2 11.7 16.2ZM11.7 12.6H2.7C2.16 12.6 1.8 12.24 1.8 11.7C1.8 11.16 2.16 10.8 2.7 10.8H11.7C12.24 10.8 12.6 11.16 12.6 11.7C12.6 12.24 12.24 12.6 11.7 12.6Z" fill="white"/>
</svg>
