<svg width="17" height="23" viewBox="0 0 17 23" fill="none" xmlns="http://www.w3.org/2000/svg">
<path d="M6.67699 14.71C6.67699 14.01 6.78699 13.39 7.00699 12.85C7.24699 12.31 7.53699 11.83 7.87699 11.41C8.23699 10.99 8.61699 10.6 9.01699 10.24C9.41699 9.88 9.78699 9.54 10.127 9.22C10.487 8.88 10.777 8.53 10.997 8.17C11.237 7.81 11.357 7.41 11.357 6.97C11.357 6.25 11.057 5.67 10.457 5.23C9.87699 4.79 9.09699 4.57 8.11699 4.57C7.17699 4.57 6.33699 4.77 5.59699 5.17C4.85699 5.55 4.24699 6.09 3.76699 6.79L0.136992 4.66C0.936992 3.44 2.04699 2.47 3.46699 1.75C4.88699 1.01 6.60699 0.64 8.62699 0.64C10.127 0.64 11.447 0.859999 12.587 1.3C13.727 1.72 14.617 2.34 15.257 3.16C15.917 3.98 16.247 4.99 16.247 6.19C16.247 6.97 16.127 7.66 15.887 8.26C15.647 8.86 15.337 9.38 14.957 9.82C14.577 10.26 14.167 10.67 13.727 11.05C13.307 11.43 12.907 11.8 12.527 12.16C12.147 12.52 11.827 12.9 11.567 13.3C11.327 13.7 11.207 14.17 11.207 14.71H6.67699ZM8.95699 22.24C8.11699 22.24 7.42699 21.97 6.88699 21.43C6.34699 20.89 6.07699 20.25 6.07699 19.51C6.07699 18.75 6.34699 18.12 6.88699 17.62C7.42699 17.1 8.11699 16.84 8.95699 16.84C9.81699 16.84 10.507 17.1 11.027 17.62C11.567 18.12 11.837 18.75 11.837 19.51C11.837 20.25 11.567 20.89 11.027 21.43C10.507 21.97 9.81699 22.24 8.95699 22.24Z" fill="white"/>
</svg>
