<svg width="16" height="18" viewBox="0 0 16 18" fill="none" xmlns="http://www.w3.org/2000/svg">
<path d="M15.5746 11.0712C15.9385 10.6253 16.0769 10.0461 15.959 9.48224L14.5904 2.96257C14.3444 1.79394 13.2988 0.948242 12.1046 0.948242H6.18458C5.60026 0.948242 5.0262 1.09687 4.51878 1.3839L4.28299 1.5223C4.18048 1.3839 4.02672 1.28652 3.8422 1.28652H0.546485C0.244062 1.28652 -0.00195312 1.53256 -0.00195312 1.82982V12.1629C-0.00195312 12.4653 0.244062 12.7062 0.546485 12.7062H3.8422C3.99083 12.7062 4.11897 12.6498 4.21636 12.5576L8.90623 16.8425C9.27016 17.1757 9.73144 17.35 10.2081 17.35C10.4798 17.35 10.7514 17.2936 11.0077 17.1757L11.5818 16.9194C12.3865 16.5555 12.7811 15.6227 12.4736 14.8026L11.3819 11.7682H14.1035C14.6776 11.7682 15.2106 11.512 15.5746 11.0712ZM3.2989 11.6145H1.08979V2.37826H3.2989V11.6145Z" fill="white"/>
</svg>
