<svg width="18" height="15" viewBox="0 0 18 15" fill="none" xmlns="http://www.w3.org/2000/svg">
<path d="M16.8947 11.8418H12.1579C11.9485 11.8418 11.7477 11.925 11.5996 12.073C11.4516 12.2211 11.3684 12.4219 11.3684 12.6313C11.3684 12.8407 11.4516 13.0415 11.5996 13.1895C11.7477 13.3376 11.9485 13.4207 12.1579 13.4207H16.8947C17.1041 13.4207 17.3049 13.3376 17.453 13.1895C17.601 13.0415 17.6842 12.8407 17.6842 12.6313C17.6842 12.4219 17.601 12.2211 17.453 12.073C17.3049 11.925 17.1041 11.8418 16.8947 11.8418Z" fill="white"/>
<path d="M17.6842 4.73684V8.68421C17.6842 8.89359 17.601 9.0944 17.453 9.24245C17.3049 9.39051 17.1041 9.47368 16.8947 9.47368H14.5263C13.27 9.47368 12.0652 9.97274 11.1769 10.8611C10.2885 11.7494 9.78948 12.9542 9.78948 14.2105C9.78948 14.4199 9.7063 14.6207 9.55825 14.7688C9.41019 14.9168 9.20939 15 9.00001 15H2.63685C2.02127 15 1.4309 14.7555 0.995616 14.3202C0.560335 13.8849 0.315796 13.2945 0.315796 12.6789V2.36842C0.315796 1.74028 0.565325 1.13786 1.00949 0.693694C1.45366 0.249529 2.05607 0 2.68422 0H6.57632C6.96294 0.00070638 7.34351 0.0960483 7.6848 0.277701C8.02608 0.459354 8.31771 0.721794 8.53422 1.04211L9.18948 2.02105C9.26264 2.12931 9.36153 2.21771 9.47727 2.27834C9.59301 2.33897 9.72199 2.36992 9.85264 2.36842H15.3158C15.9439 2.36842 16.5464 2.61795 16.9905 3.06212C17.4347 3.50628 17.6842 4.1087 17.6842 4.73684Z" fill="white"/>
</svg>
