<svg width="17" height="17" viewBox="0 0 17 17" fill="none" xmlns="http://www.w3.org/2000/svg">
<path d="M13.6 0C13.1717 0 12.7835 0.143898 12.4321 0.401575L5.12008 4.1563C4.99961 4.21654 4.86575 4.25 4.73189 4.25L0.85 4.25C0.381496 4.25 0 4.6315 0 5.1L0 10.2C0 10.6685 0.381496 11.05 0.85 11.05H1.30512C1.49252 11.05 1.64646 11.2006 1.64646 11.3913L1.64646 16.15C1.64646 16.6185 2.02795 17 2.49646 17H4.25C4.7185 17 5.1 16.6185 5.1 16.15V11.6892C5.1 11.3813 5.32421 11.2474 5.59528 11.388L12.4321 14.8984C12.7801 15.1561 13.1717 15.3 13.6 15.3C15.8321 15.3 17 11.4516 17 7.65C17 3.84843 15.8321 0 13.6 0ZM13.6 13.6C13.1081 13.6 11.9 11.5152 11.9 7.65C11.9 3.78484 13.1047 1.7 13.6 1.7C14.0953 1.7 15.3 3.78484 15.3 7.65C15.3 11.5152 14.0919 13.6 13.6 13.6Z" fill="white"/>
</svg>
