<svg width="18" height="17" viewBox="0 0 18 17" fill="none" xmlns="http://www.w3.org/2000/svg">
<path d="M15.1102 2.89345H7.74014L13.0333 0.0704834C13.1722 -0.00465252 13.3341 -0.0221655 13.4787 0.0298083C13.6293 0.0761328 13.7507 0.180363 13.8202 0.319054L15.1102 2.89345ZM17.3547 5.7859V14.4633C17.3547 15.4177 16.5737 16.1987 15.6192 16.1987H1.73547C0.781019 16.1987 0 15.4177 0 14.4633V4.05043C0 2.45393 1.29595 1.15798 2.89245 1.15798H8.53274L5.2759 2.89345H3.47094C3.15289 2.89345 2.89245 3.15388 2.89245 3.47194C2.89245 3.79 3.15289 4.05043 3.47094 4.05043H15.6192C16.5737 4.05043 17.3547 4.83145 17.3547 5.7859ZM15.0408 10.1246C15.0408 9.48818 14.5202 8.9676 13.8838 8.9676C13.2474 8.9676 12.7268 9.48818 12.7268 10.1246C12.7268 10.761 13.2474 11.2816 13.8838 11.2816C14.5202 11.2816 15.0408 10.761 15.0408 10.1246Z" fill="white"/>
</svg>
