<svg width="18" height="18" viewBox="0 0 18 18" fill="none" xmlns="http://www.w3.org/2000/svg">
<path d="M0.900185 14.6818L3.63443 11.9476C4.25057 12.4088 5.00737 12.6917 5.83614 12.6917C7.87494 12.6917 9.5277 11.0389 9.5277 9.00015C9.5277 6.96135 7.87494 5.30859 5.83614 5.30859C3.79735 5.30859 2.14459 6.96135 2.14459 9.00015C2.14459 9.82892 2.4275 10.5857 2.8887 11.2019L0.154491 13.9361C-0.0514972 14.1421 -0.0514972 14.4758 0.154491 14.6818C0.36048 14.8878 0.694197 14.8878 0.900185 14.6818ZM3.8812 8.6273C4.08719 8.42131 4.42094 8.42131 4.62693 8.6273L5.30878 9.30915L7.04539 7.57254C7.25138 7.36655 7.58513 7.36655 7.79112 7.57254C7.99711 7.77852 7.99711 8.11228 7.79112 8.31826L5.68166 10.4277C5.47567 10.6337 5.14192 10.6337 4.93593 10.4277L3.8812 9.37299C3.67518 9.16701 3.67518 8.83329 3.8812 8.6273Z" fill="white"/>
<path d="M2.14459 1.58161V2.63634C2.14459 2.92758 2.38071 3.19886 2.67196 3.19886H5.30878V1.58161C5.30878 0.707833 4.60046 -0.000488281 3.72669 -0.000488281C2.85291 -0.000488281 2.14459 0.707833 2.14459 1.58161Z" fill="white"/>
<path d="M17.4733 15.8911H10.5824V16.4185C10.5824 17.0143 10.3762 17.5585 10.0416 18.0006H16.9459C17.5285 18.0006 18.0007 17.5283 18.0007 16.9458V16.4185C18.0007 16.1272 17.7645 15.8911 17.4733 15.8911Z" fill="white"/>
<path d="M10.5824 8.99987C10.5824 11.4365 8.73016 13.4266 6.36352 13.6929V16.4181C6.36352 17.2919 7.07184 18.0002 7.94562 18.0002C8.81939 18.0002 9.52771 17.2919 9.52771 16.4181V15.3634C9.52771 15.0721 9.76383 14.836 10.0551 14.836H15.8912V2.63634C15.8912 1.18004 14.7107 -0.000488281 13.2544 -0.000488281H5.82269C6.15732 0.441584 6.36352 0.985754 6.36352 1.58161V4.30689C8.73016 4.57313 10.5824 6.5632 10.5824 8.99987Z" fill="white"/>
</svg>
