<svg width="19" height="19" viewBox="0 0 19 19" fill="none" xmlns="http://www.w3.org/2000/svg">
<path d="M9.50003 14.4761C11.4988 14.4761 13.1191 12.7545 13.1191 10.6309C13.1191 8.50722 11.4988 6.78564 9.50003 6.78564C7.50128 6.78564 5.88098 8.50722 5.88098 10.6309C5.88098 12.7545 7.50128 14.4761 9.50003 14.4761Z" fill="white"/>
<path d="M9.49998 18.3033C7.65262 18.3044 5.86955 17.5861 4.49102 16.2856C4.3733 16.4858 4.23233 16.6697 4.07141 16.8328C5.57139 18.2295 7.50141 18.9999 9.49998 18.9999C11.4986 18.9999 13.4286 18.2295 14.9286 16.8328C14.7676 16.6697 14.6267 16.4858 14.5089 16.2856C13.1304 17.5861 11.3474 18.3044 9.49998 18.3033Z" fill="white"/>
<path d="M7.23812 2.91734C7.14203 2.70781 7.07402 2.48753 7.03569 2.26172C4.93293 2.92338 3.16273 4.3085 2.06918 6.14784C0.975624 7.98719 0.636834 10.1494 1.11866 12.2141C1.34719 12.1464 1.58371 12.1063 1.82268 12.095C1.37437 10.1959 1.68019 8.20541 2.68083 6.50962C3.68146 4.81383 5.30557 3.53362 7.23812 2.91734Z" fill="white"/>
<path d="M9.49995 4.07143C10.4993 4.07143 11.3095 3.16001 11.3095 2.03571C11.3095 0.91142 10.4993 0 9.49995 0C8.50058 0 7.69043 0.91142 7.69043 2.03571C7.69043 3.16001 8.50058 4.07143 9.49995 4.07143Z" fill="white"/>
<path d="M17.8814 12.2141C18.3632 10.1494 18.0245 7.98719 16.9309 6.14784C15.8373 4.3085 14.0672 2.92338 11.9644 2.26172C11.9262 2.48788 11.8581 2.70851 11.762 2.91836C13.6945 3.53444 15.3187 4.8144 16.3195 6.50999C17.3203 8.20557 17.6264 10.1959 17.1785 12.095C17.4171 12.1064 17.6532 12.1465 17.8814 12.2141Z" fill="white"/>
<path d="M16.9643 17.1906C18.0886 17.1906 19 16.2791 19 15.1549C19 14.0306 18.0886 13.1191 16.9643 13.1191C15.84 13.1191 14.9286 14.0306 14.9286 15.1549C14.9286 16.2791 15.84 17.1906 16.9643 17.1906Z" fill="white"/>
<path d="M2.03571 17.1906C3.16001 17.1906 4.07143 16.2791 4.07143 15.1549C4.07143 14.0306 3.16001 13.1191 2.03571 13.1191C0.91142 13.1191 0 14.0306 0 15.1549C0 16.2791 0.91142 17.1906 2.03571 17.1906Z" fill="white"/>
</svg>
