<svg width="19" height="20" viewBox="0 0 19 20" fill="none" xmlns="http://www.w3.org/2000/svg">
<path d="M9.27847 17.3045L8.69261 17.8904C8.01818 18.5648 6.92773 18.5642 6.25392 17.8904C5.58136 17.2179 5.58136 16.1243 6.25392 15.4517L6.83978 14.8659C7.08678 14.1132 7.486 13.4112 8.05148 12.8457L14.9465 5.95123V4.59892H10.9224C10.6047 4.59892 10.3476 4.3418 10.3476 4.02405V0H0.574865C0.257118 0 0 0.257118 0 0.574865V19.0472C0 19.3649 0.257118 19.6221 0.574865 19.6221H14.3716C14.6894 19.6221 14.9465 19.3649 14.9465 19.0472V12.4446L11.2985 16.0928C10.7331 16.6583 10.0312 17.0575 9.27847 17.3045ZM2.87432 5.74865H8.62297C8.94072 5.74865 9.19784 6.00577 9.19784 6.32351C9.19784 6.64126 8.94072 6.89838 8.62297 6.89838H2.87432C2.55658 6.89838 2.29946 6.64126 2.29946 6.32351C2.29946 6.00577 2.55658 5.74865 2.87432 5.74865ZM2.87432 8.04811H8.62297C8.94072 8.04811 9.19784 8.30523 9.19784 8.62297C9.19784 8.94072 8.94072 9.19784 8.62297 9.19784H2.87432C2.55658 9.19784 2.29946 8.94072 2.29946 8.62297C2.29946 8.30523 2.55658 8.04811 2.87432 8.04811ZM2.87432 10.3476H8.62297C8.94072 10.3476 9.19784 10.6047 9.19784 10.9224C9.19784 11.2402 8.94072 11.4973 8.62297 11.4973H2.87432C2.55658 11.4973 2.29946 11.2402 2.29946 10.9224C2.29946 10.6047 2.55658 10.3476 2.87432 10.3476ZM4.02405 17.2459C3.07307 17.2459 2.29946 16.4723 2.29946 15.5214C2.29946 14.5704 3.07307 13.7968 4.02405 13.7968C4.97503 13.7968 5.74865 14.5704 5.74865 15.5214C5.74865 16.4723 4.97507 17.2459 4.02405 17.2459Z" fill="white"/>
<path d="M4.02405 16.0963C4.34154 16.0963 4.59892 15.8389 4.59892 15.5214C4.59892 15.2039 4.34154 14.9465 4.02405 14.9465C3.70656 14.9465 3.44919 15.2039 3.44919 15.5214C3.44919 15.8389 3.70656 16.0963 4.02405 16.0963Z" fill="white"/>
<path d="M11.4973 0.336792V3.44915H14.6096L11.4973 0.336792Z" fill="white"/>
<path d="M18.4484 5.69587C18.2239 5.47133 17.8601 5.47133 17.6355 5.69587L17.3967 5.93467C17.172 5.71293 16.8105 5.71312 16.5868 5.9367L14.386 8.13736L16.0068 9.75837L18.2076 7.55744C18.4312 7.33385 18.4314 6.97226 18.2096 6.74757L18.4484 6.50877C18.673 6.28423 18.673 5.92041 18.4484 5.69587Z" fill="white"/>
<path d="M8.86438 13.6586C8.36103 14.1619 8.0189 14.8015 7.84645 15.4849L7.06681 16.2645C6.84227 16.4891 6.84227 16.8529 7.06681 17.0774C7.29136 17.302 7.65513 17.302 7.87971 17.0774L8.65934 16.2978C9.34278 16.1253 9.98234 15.7832 10.4857 15.2799L15.194 10.5712L13.5731 8.9502L8.86438 13.6586Z" fill="white"/>
</svg>
