<svg width="20" height="20" viewBox="0 0 20 20" fill="none" xmlns="http://www.w3.org/2000/svg">
<path d="M18.7078 3.26742L19.0054 2.76273L17.9971 2.16594L17.6984 2.67004C17.6939 2.67922 17.14 3.55469 15.8594 3.55469C14.8032 3.55469 14.2761 3.06281 13.8498 2.38281H11.6499C11.4729 1.88641 11.0823 1.4959 10.5859 1.31887V0H9.41406V1.31887C8.91766 1.4959 8.52715 1.88641 8.35012 2.38281H6.1502C5.76281 3.00559 5.23879 3.55469 4.14062 3.55469C2.86574 3.55469 2.32102 2.70152 2.30156 2.67008L2.00289 2.16598L0.994648 2.76277L1.29219 3.26746C1.32117 3.31609 1.90723 4.24906 3.18617 4.59246L0 9.8375V10C0 12.2614 1.87926 14.1016 4.14062 14.1016C6.40199 14.1016 8.24219 12.2614 8.24219 10V9.8375L5.10191 4.60398C5.96094 4.37445 6.50289 3.87434 6.77621 3.55469H8.35012C8.52715 4.05109 8.91766 4.4416 9.41406 4.61863V16.4453H4.72656V18.8281H3.55469V20H16.4453V18.8281H15.2734V16.4453H10.5859V4.61863C11.0823 4.4416 11.4729 4.05109 11.6499 3.55469H13.2238C13.4971 3.87434 14.039 4.37445 14.898 4.60398L11.7578 9.8375V10C11.7578 12.2614 13.598 14.1016 15.8594 14.1016C18.1207 14.1016 20 12.2614 20 10V9.8375L16.8138 4.59246C18.0928 4.24906 18.6788 3.31609 18.7078 3.26742ZM1.66035 9.41406L4.14062 5.2793L6.6209 9.41406H1.66035ZM13.3791 9.41406L15.8594 5.2793L18.3396 9.41406H13.3791Z" fill="white"/>
</svg>
