<svg width="19" height="17" viewBox="0 0 19 17" fill="none" xmlns="http://www.w3.org/2000/svg">
<path d="M18.6183 10.7571C16.2306 12.1951 13.2 13.1835 9.61068 13.6947C7.46677 14 6.06997 14.0443 3.90741 14.0443C3.50213 14.0443 3.07028 14.0428 2.6012 14.0411C2.06152 14.0392 1.44984 14.0369 0.781503 14.0369C0.727852 14.0369 0.710537 14.1089 0.758281 14.1334C1.80449 14.6698 4.9249 16.0245 9.75224 16.0245C12.591 16.0245 15.6508 15.5471 18.1194 14.2137C18.6626 13.9203 19 13.3559 19 12.7406V10.9759C19 10.78 18.7873 10.658 18.6183 10.7571Z" fill="white"/>
<path d="M9.50067 8.19147C10.1631 8.19147 10.702 7.65254 10.702 6.99014C10.702 6.32775 10.1631 5.78882 9.50067 5.78882C8.83828 5.78882 8.29935 6.32771 8.29935 6.99014C8.29935 7.65258 8.83824 8.19147 9.50067 8.19147Z" fill="white"/>
<path d="M0.781543 12.4764C1.45267 12.4764 2.06584 12.4787 2.60681 12.4806C5.5034 12.4911 6.95723 12.4963 9.39065 12.1499C12.7261 11.6748 15.6399 10.7301 17.817 9.41805C17.8198 9.41638 17.8226 9.41471 17.8254 9.41307L18.8746 8.79849C18.9523 8.75298 19 8.66971 19 8.57969V1.6748C19 0.437728 17.7051 -0.368866 16.5992 0.170176C12.2211 2.30409 6.87427 2.54541 5.33966 2.56856C4.95856 2.57532 6.417 2.56848 1.67344 2.56848C0.749924 2.56848 0.00121757 3.31734 0.00121757 4.24086C0.00121757 8.56575 -0.000491547 10.8334 0.000140085 12.031C0.000288704 12.2771 0.199847 12.4764 0.445998 12.4764H0.781543ZM14.4061 2.68296L15.595 2.28663C16.0038 2.15038 16.4457 2.3713 16.582 2.78012C16.7182 3.18893 16.4973 3.63081 16.0885 3.76706L14.8995 4.16339C14.8177 4.19066 14.7344 4.20363 14.6527 4.20363C14.326 4.20363 14.0216 3.99686 13.9126 3.6699C13.7763 3.26109 13.9973 2.8192 14.4061 2.68296ZM9.50066 4.22819C11.0236 4.22819 12.2625 5.46715 12.2625 6.99002C12.2625 8.51292 11.0235 9.75185 9.50066 9.75185C7.9778 9.75185 6.73884 8.51288 6.73884 6.99002C6.7388 5.46715 7.97776 4.22819 9.50066 4.22819ZM3.15956 8.98401H4.34852C4.77944 8.98401 5.12877 9.33334 5.12877 9.76426C5.12877 10.1952 4.77944 10.5445 4.34852 10.5445H3.15956C2.72864 10.5445 2.37931 10.1952 2.37931 9.76426C2.37931 9.33334 2.72864 8.98401 3.15956 8.98401Z" fill="white"/>
</svg>
