<svg width="18" height="18" viewBox="0 0 18 18" fill="none" xmlns="http://www.w3.org/2000/svg">
<path d="M4.74385 6.02661H1.3229C1.08673 6.02661 0.895279 6.21806 0.895279 6.45423V15.8618C0.895279 16.098 1.08673 16.2895 1.3229 16.2895H4.74385C4.98002 16.2895 5.17147 16.098 5.17147 15.8618V6.45423C5.17147 6.21806 4.98002 6.02661 4.74385 6.02661Z" fill="white"/>
<path d="M10.7305 0.0400391H7.30956C7.07339 0.0400391 6.88194 0.231491 6.88194 0.467658V15.8619C6.88194 16.0981 7.07339 16.2896 7.30956 16.2896H10.7305C10.9667 16.2896 11.1581 16.0981 11.1581 15.8619V0.467658C11.1581 0.231491 10.9667 0.0400391 10.7305 0.0400391Z" fill="white"/>
<path d="M16.7172 9.44751H13.2962C13.0601 9.44751 12.8686 9.63896 12.8686 9.87513V15.8618C12.8686 16.098 13.0601 16.2894 13.2962 16.2894H16.7172C16.9534 16.2894 17.1448 16.098 17.1448 15.8618V9.87513C17.1448 9.63896 16.9534 9.44751 16.7172 9.44751Z" fill="white"/>
<path d="M17.5724 17.1448H0.467658C0.354246 17.1448 0.24548 17.1898 0.165286 17.27C0.0850917 17.3502 0.0400391 17.459 0.0400391 17.5724C0.0400391 17.6858 0.0850917 17.7946 0.165286 17.8748C0.24548 17.955 0.354246 18 0.467658 18H17.5724C17.6858 18 17.7946 17.955 17.8748 17.8748C17.955 17.7946 18 17.6858 18 17.5724C18 17.459 17.955 17.3502 17.8748 17.27C17.7946 17.1898 17.6858 17.1448 17.5724 17.1448Z" fill="white"/>
</svg>
