<svg width="17" height="17" viewBox="0 0 17 17" fill="none" xmlns="http://www.w3.org/2000/svg">
<path d="M3.98438 0.325684H0V10.8418H3.98438V0.325684Z" fill="white"/>
<path d="M16.2998 7.45829C16.5119 7.17613 16.6378 6.82567 16.6378 6.44632C16.6378 5.88429 16.3614 5.38588 15.9376 5.07898C16.1497 4.79682 16.2756 4.44636 16.2756 4.06698C16.2756 3.50496 15.9995 3.00628 15.5758 2.69938C15.7877 2.41729 15.9134 2.06689 15.9134 1.68768C15.9134 0.757098 15.1563 0 14.2257 0H8.91258C8.03745 0 7.17828 0.155789 6.359 0.463018L4.98047 0.97999V9.69548C6.59593 11.4338 8.07453 13.0929 8.34082 13.5191V15.4781C8.34082 15.8729 8.662 16.1941 9.05682 16.1941C10.6851 16.1941 12.0098 14.8694 12.0098 13.2411V12.3575L11.4759 10.5133H15.3123C16.2429 10.5133 17 9.75621 17 8.82562C17 8.26359 16.7236 7.76518 16.2998 7.45829Z" fill="white"/>
</svg>
