<svg width="19" height="19" viewBox="0 0 19 19" fill="none" xmlns="http://www.w3.org/2000/svg">
<path d="M9.5 11.4C14.4001 11.4 19 8.59597 19 6.90396C19 6.58807 18.852 6.40199 18.7294 6.30249C18.2867 5.93103 17.4559 6.08725 15.9864 6.4112C15.8183 4.26746 15.3968 1.63299 14.3662 0.558204C14.0111 0.186077 13.6052 0 13.1529 0C12.1931 0 11.6647 0.441381 11.1954 0.835165C10.7345 1.21597 10.3371 1.54917 9.5 1.54917C8.66289 1.54917 8.26547 1.21597 7.80462 0.835165C7.33532 0.441381 6.80262 1.9522e-07 5.84713 1.9522e-07C5.39475 1.9522e-07 4.98886 0.186077 4.63372 0.558204C3.60016 1.63608 3.17789 4.26779 3.00953 6.41031C1.54249 6.08695 0.712607 5.93137 0.266346 6.30249C0.143746 6.40199 0 6.58807 0 6.90396C4e-08 8.59597 4.5999 11.4 9.5 11.4Z" fill="white"/>
<path d="M17.6255 14.2643H15.8723C15.6685 12.6479 14.3865 11.3999 12.8413 11.3999C11.3768 11.3999 10.1499 12.5143 9.84854 14.0065C9.31792 13.7946 8.72785 13.7946 8.19722 14.0065C7.89581 12.5143 6.66899 11.3999 5.20868 11.3999C3.66347 11.3999 2.38148 12.6479 2.17769 14.2643H0.424484C0.19101 14.2643 0 14.4716 0 14.7249C0 14.9782 0.19101 15.1854 0.424484 15.1854H2.17769C2.38148 16.8019 3.66347 18.0499 5.20868 18.0499C6.81758 18.0499 8.13779 16.7006 8.26086 14.992C8.73632 14.6973 9.30943 14.6973 9.78487 14.9874C9.90371 16.696 11.2282 18.0499 12.8413 18.0499C14.3865 18.0499 15.6685 16.8019 15.8723 15.1854H17.6255C17.859 15.1854 18.05 14.9782 18.05 14.7249C18.05 14.4716 17.859 14.2643 17.6255 14.2643Z" fill="white"/>
</svg>
