<svg width="18" height="18" viewBox="0 0 18 18" fill="none" xmlns="http://www.w3.org/2000/svg">
<path d="M17.4724 15.8906H0.527337C0.23586 15.8906 0 16.1265 0 16.418V17.4726C0 17.7641 0.23586 18 0.527337 18H17.4724C17.7639 18 17.9998 17.7641 17.9998 17.4726V16.418C17.9998 16.1265 17.7639 15.8906 17.4724 15.8906Z" fill="white"/>
<path d="M17.6001 2.19587L9.1276 0.0162156C9.04418 -0.0054052 8.95558 -0.0054052 8.87216 0.0162156L0.399616 2.19587C0.164775 2.25458 0 2.4652 0 2.70725V4.8166C0 5.10807 0.23586 5.34393 0.527337 5.34393H17.4724C17.7639 5.34393 17.9998 5.10807 17.9998 4.8166V2.70725C17.9998 2.46524 17.835 2.25458 17.6001 2.19587ZM8.99992 3.23459C8.70869 3.23459 8.47258 2.99848 8.47258 2.70725C8.47258 2.41595 8.70869 2.17991 8.99992 2.17991C9.29115 2.17991 9.52725 2.41595 9.52725 2.70725C9.52725 2.99848 9.29111 3.23459 8.99992 3.23459Z" fill="white"/>
<path d="M16.9099 6.92626V6.39893H1.08978V6.92626C1.08978 7.20582 1.30866 7.42864 1.58358 7.44685L1.1217 14.8363H4.22188L3.76046 7.4536H5.80182L5.3404 14.8363H8.44058L7.97916 7.4536H10.0205L9.55909 14.8363H12.6593L12.1979 7.4536H14.2392L13.7778 14.8363H16.878L16.4161 7.44685C16.691 7.42864 16.9099 7.20586 16.9099 6.92626Z" fill="white"/>
</svg>
