<svg width="18" height="18" viewBox="0 0 18 18" fill="none" xmlns="http://www.w3.org/2000/svg">
<path d="M15.5333 3.29539H12.3823C12.3048 3.29539 12.2419 3.23242 12.2419 3.15476V0.000976562L15.5333 3.29539Z" fill="#013F5F"/>
<path d="M11.7149 4.35005C11.4242 4.35005 11.188 4.1138 11.188 3.82272V0.000976562H2.99396C2.70322 0.000976562 2.46733 0.237221 2.46733 0.528307V7.81883L7.95333 7.81179C8.56577 7.14887 9.36499 6.71997 10.2817 6.73217C11.0899 6.73217 11.8767 7.05736 12.4409 7.62442C12.6107 7.79316 12.8364 7.88632 13.0769 7.88632H13.079L15.5332 7.88175V4.35005H11.7149ZM7.50017 5.27428H5.10152C4.81079 5.27428 4.57454 5.03804 4.57454 4.74695C4.57454 4.45586 4.81079 4.21962 5.10152 4.21962H7.50017C7.79091 4.21962 8.0268 4.45586 8.0268 4.74695C8.0268 5.03804 7.79091 5.27428 7.50017 5.27428ZM7.50017 3.16496H5.10152C4.81079 3.16496 4.57454 2.92872 4.57454 2.63763C4.57454 2.34654 4.81079 2.1103 5.10152 2.1103H7.50017C7.79091 2.1103 8.0268 2.34654 8.0268 2.63763C8.0268 2.92872 7.79091 3.16496 7.50017 3.16496Z" fill="#013F5F"/>
<path d="M12.3807 13.248C12.3804 13.248 10.5061 11.3921 10.5061 11.3921C10.4378 11.3245 10.3279 11.3247 10.2601 11.3927C10.0203 11.6331 9.51223 12.1426 9.51117 12.1434C8.79404 12.7895 7.99183 13.1309 7.19067 13.1309C6.74522 13.1406 6.25871 13.0137 5.85133 12.7917C5.22102 12.457 4.89482 11.737 5.05685 11.0395C5.16101 10.5603 5.45182 10.2994 5.80703 9.94829C6.1069 9.64631 6.49463 9.25608 6.88486 8.86621L0.518362 8.87641C0.227276 8.87676 0.00108592 9.11335 0.00143748 9.40479L0.000488281 13.6607C0.000839835 13.9518 0.237435 14.1873 0.528838 14.187L2.94268 14.1824L6.5055 17.7334C6.85912 18.0861 7.42934 18.0889 7.78684 17.744C8.15101 17.3921 8.14644 16.8008 7.79739 16.4366L8.52436 17.1608C8.87201 17.5113 9.46016 17.5208 9.81836 17.1583C10.1752 16.8001 10.1741 16.2207 9.8159 15.8642C10.1744 16.2246 10.7651 16.2133 11.1103 15.8614C11.4607 15.5141 11.4695 14.9249 11.1078 14.567C11.4549 14.916 12.018 14.9175 12.3677 14.5972C12.4716 14.507 12.5483 14.3957 12.5976 14.2717C12.7403 13.9248 12.6563 13.5062 12.3807 13.248Z" fill="#013F5F"/>
<path d="M17.445 8.93263L13.081 8.94107C12.5614 8.94213 12.0629 8.73717 11.6952 8.3705C10.9489 7.61818 9.70554 7.58865 8.95887 8.31003C8.27197 8.95443 6.70165 10.5459 6.22428 11.0247C6.15186 11.0979 6.10545 11.1854 6.08436 11.2775C6.03233 11.499 6.12619 11.744 6.34592 11.8607C7.18715 12.3072 8.06983 12.0228 8.80524 11.3601L9.5832 10.5765C9.98467 10.1221 10.6917 10.0895 11.1233 10.5195L13.1073 12.4844C13.9383 13.2296 13.9141 14.6996 13.0458 15.4058C12.9094 15.5239 12.7593 15.622 12.599 15.6983L13.6807 15.6965C15.0798 15.6937 15.3787 14.3494 15.3787 14.3494L17.4555 14.3448C17.7466 14.3445 18.0004 14.1079 18.0001 13.8164V9.45891C17.9993 9.16782 17.736 8.93228 17.445 8.93263Z" fill="#013F5F"/>
</svg>
