<svg width="18" height="20" viewBox="0 0 18 20" fill="none" xmlns="http://www.w3.org/2000/svg">
<path d="M15.3976 0.503229C15.3976 0.225303 15.1655 0 14.8792 0H3.10002C1.39495 0 0 1.29021 0 2.86729V17.1327C0 18.71 1.39495 20 3.10002 20H14.9002C16.605 20 18 18.71 18 17.1327V7.61V3.89969C18 3.62176 17.7679 3.39646 17.4816 3.39646H10.7107C10.0151 3.39646 9.45114 3.94391 9.45114 4.61922V8.85306C9.45114 9.07418 9.17831 9.18766 9.01339 9.03513L7.24983 7.40399C7.14977 7.31144 6.9925 7.31144 6.89244 7.40399L5.12888 9.03513C4.96396 9.18766 4.69113 9.07418 4.69113 8.85306V3.39646H3.33523C2.36069 3.39646 1.56385 2.85854 1.56385 2.20146C1.56385 1.54437 2.36069 1.00646 3.33523 1.00646H14.8792C15.1655 1.00646 15.3976 0.781154 15.3976 0.503229Z" fill="#013F5F"/>
</svg>
