<svg width="20" height="16" viewBox="0 0 20 16" fill="none" xmlns="http://www.w3.org/2000/svg">
<path d="M12.0163 7.82013C12.0163 5.34946 12.4706 3.18442 13.2248 1.63965C8.79148 4.18711 4.90385 4.3498 2.9533 4.46732C1.85654 4.53338 0.84664 5.24715 0.32155 6.36483C-0.106445 7.2759 -0.103917 8.34991 0.309615 9.26748C0.830727 10.424 1.84651 11.1824 2.95326 11.1729C3.1365 11.1713 3.35589 11.1741 3.59989 11.1823C3.20476 12.9605 4.22332 14.8418 6.05522 15.6356C6.61508 15.8783 7.20536 16.0002 7.79054 16.0002C8.24659 16.0002 8.69961 15.9261 9.13237 15.7767C10.1331 15.4316 10.9067 14.7279 11.3106 13.7959C11.4046 13.5792 11.4684 13.3521 11.517 13.1217C12.0779 13.3808 12.649 13.6726 13.2265 14.0037C12.4713 12.4587 12.0163 10.2926 12.0163 7.82013ZM10.5619 13.4715C10.2501 14.1908 9.6481 14.7354 8.86624 15.0053C8.07154 15.2794 7.18816 15.2372 6.37966 14.8865C4.86378 14.2297 4.03418 12.6669 4.42658 11.2313C5.98428 11.3577 8.23428 11.7368 10.7551 12.7865C10.7207 13.0221 10.6569 13.2524 10.5619 13.4715Z" fill="white"/>
<path d="M16.2089 0C14.8594 0 13.6982 1.83821 13.1576 4.4886C14.9598 4.53153 16.4134 6.00814 16.4134 7.82048C16.4134 9.63279 14.9597 11.109 13.1575 11.1519C13.698 13.8024 14.8593 15.6407 16.2089 15.6407C18.0737 15.6407 19.5854 12.1394 19.5854 7.82036C19.5854 3.50133 18.0737 0 16.2089 0Z" fill="white"/>
</svg>
