<svg width="17" height="17" viewBox="0 0 17 17" fill="none" xmlns="http://www.w3.org/2000/svg">
<path d="M4.51562 0V1.49414C5.33953 1.49414 6.00977 0.823902 6.00977 0H4.51562Z" fill="white"/>
<path d="M12.4844 0H10.9902C10.9902 0.823902 11.6605 1.49414 12.4844 1.49414V0Z" fill="white"/>
<path d="M3.51955 6.41554V3.02344L0.471008 4.90785L3.51955 6.41554Z" fill="white"/>
<path d="M7.22357 8.26774L8.5 8.90601L9.77643 8.26778C9.54175 8.12378 9.12262 7.96875 8.5 7.96875C7.87737 7.96875 7.45825 8.12378 7.22357 8.26774Z" fill="white"/>
<path d="M13.4805 6.41554L16.529 4.90778L13.4805 3.02344V6.41554Z" fill="white"/>
<path d="M0 5.78613V16.9999H17V5.78613L8.5 10.0197L0 5.78613ZM10.3463 11.8403L9.20427 12.9823L10.3463 14.1244L9.64202 14.8286L8.5 13.6866L7.35798 14.8286L6.65371 14.1244L7.79573 12.9823L6.65371 11.8403L7.35798 11.1361L8.5 12.2781L9.64202 11.1361L10.3463 11.8403Z" fill="white"/>
<path d="M12.4844 6.91369V2.49023C11.1113 2.49023 9.99414 1.37305 9.99414 0H7.00586C7.00586 1.37305 5.88867 2.49023 4.51562 2.49023V6.91375L6.27167 7.79178C6.66971 7.29957 7.49258 6.97266 8.5 6.97266C9.50742 6.97266 10.3302 7.29961 10.7283 7.79178L12.4844 6.91369ZM8.99805 4.98047H8.00195V3.98438H8.99805V4.98047Z" fill="white"/>
</svg>
