<svg width="19" height="19" viewBox="0 0 19 19" fill="none" xmlns="http://www.w3.org/2000/svg">
<path d="M18.5782 7.84693L16.3993 7.31096C16.2748 6.91849 16.1166 6.53633 15.9258 6.1694L17.0619 4.27604C17.1935 4.05698 17.1587 3.77647 16.9782 3.59601L15.404 2.02176C15.2229 1.83966 14.9419 1.80704 14.7239 1.93804L12.8306 3.07414C12.4636 2.88332 12.0815 2.72516 11.689 2.60066L11.153 0.421785C11.0911 0.173969 10.8688 0 10.6133 0H8.38672C8.13122 0 7.9089 0.173969 7.84693 0.421822L7.31096 2.6007C6.91849 2.72516 6.53633 2.88336 6.1694 3.07418L4.27604 1.93807C4.05698 1.8076 3.77647 1.84133 3.59601 2.02179L2.02176 3.59601C1.84129 3.77647 1.80648 4.05698 1.93804 4.27604L3.07414 6.1694C2.88332 6.53633 2.72516 6.91849 2.60066 7.31096L0.421785 7.84693C0.173969 7.9089 0 8.13122 0 8.38672V10.6133C0 10.8688 0.173969 11.0911 0.421822 11.1531L2.6007 11.689C2.72516 12.0815 2.88336 12.4637 3.07418 12.8306L1.93807 14.724C1.80652 14.943 1.84133 15.2235 2.02179 15.404L3.59605 16.9782C3.77543 17.1593 4.05646 17.1924 4.27608 17.062L6.16943 15.9259C6.53637 16.1167 6.91852 16.2748 7.31099 16.3993L7.84696 18.5782C7.9089 18.8261 8.13122 19 8.38672 19H10.6133C10.8688 19 11.0911 18.826 11.1531 18.5782L11.689 16.3993C12.0815 16.2748 12.4637 16.1166 12.8306 15.9258L14.724 17.0619C14.9425 17.1929 15.2235 17.1581 15.404 16.9782L16.9782 15.404C17.1587 15.2235 17.1935 14.943 17.062 14.7239L15.9259 12.8306C16.1167 12.4636 16.2748 12.0815 16.3993 11.689L18.5782 11.153C18.8261 11.0911 19 10.8688 19 10.6133V8.38672C19 8.13122 18.8261 7.9089 18.5782 7.84693ZM9.5 14.5098C6.73747 14.5098 4.49023 12.2625 4.49023 9.5C4.49023 6.73747 6.73747 4.49023 9.5 4.49023C12.2625 4.49023 14.5098 6.73747 14.5098 9.5C14.5098 12.2625 12.2625 14.5098 9.5 14.5098Z" fill="white"/>
<path d="M9.5 6.7168C7.96542 6.7168 6.7168 7.96542 6.7168 9.5C6.7168 11.0346 7.96542 12.2832 9.5 12.2832C11.0346 12.2832 12.2832 11.0346 12.2832 9.5C12.2832 7.96542 11.0346 6.7168 9.5 6.7168Z" fill="white"/>
</svg>
